{
  "accessors": [
    {
      "bufferView": 2,
      "componentType": 5126,
      "count": 34793,
      "max": [
        0.16170796751976013,
        0.11407770216464996,
        0.27339768409729004
      ],
      "min": [
        0.0019316375255584717,
        -0.005520600825548172,
        0.09235857427120209
      ],
      "type": "VEC3"
    },
    {
      "bufferView": 2,
      "byteOffset": 417516,
      "componentType": 5126,
      "count": 34793,
      "max": [
        0.9999558329582214,
        0.9999749660491943,
        0.9999722242355347
      ],
      "min": [
        -0.9999803900718689,
        -0.9999240636825562,
        -0.9995718002319336
      ],
      "type": "VEC3"
    },
    {
      "bufferView": 1,
      "componentType": 5126,
      "count": 34793,
      "max": [
        0.9962272644042969,
        0.999910831451416
      ],
      "min": [
        0.003276919247582555,
        0.008267433382570744
      ],
      "type": "VEC2"
    },
    {
      "bufferView": 1,
      "byteOffset": 278344,
      "componentType": 5126,
      "count": 34793,
      "max": [
        0.9962272644042969,
        0.999910831451416
      ],
      "min": [
        0.003276919247582555,
        0.008267433382570744
      ],
      "type": "VEC2"
    },
    {
      "bufferView": 1,
      "byteOffset": 556688,
      "componentType": 5126,
      "count": 34793,
      "max": [
        0.9962272644042969,
        0.999910831451416
      ],
      "min": [
        0.003276919247582555,
        0.008267433382570744
      ],
      "type": "VEC2"
    },
    {
      "bufferView": 0,
      "componentType": 5125,
      "count": 177513,
      "type": "SCALAR"
    }
  ],
  "asset": {
    "extras": {
      "author": "alban (https://sketchfab.com/alban)",
      "license": "CC-BY-4.0 (http://creativecommons.org/licenses/by/4.0/)",
      "source": "https://sketchfab.com/3d-models/rose-4cc57c2bf76b43b49395e06f84b34538",
      "title": "Rose"
    },
    "generator": "Sketchfab-11.54.0",
    "version": "2.0"
  },
  "bufferViews": [
    {
      "buffer": 0,
      "byteLength": 710052,
      "name": "floatBufferViews",
      "target": 34963
    },
    {
      "buffer": 0,
      "byteLength": 835032,
      "byteOffset": 710052,
      "byteStride": 8,
      "name": "floatBufferViews",
      "target": 34962
    },
    {
      "buffer": 0,
      "byteLength": 835032,
      "byteOffset": 1545084,
      "byteStride": 12,
      "name": "floatBufferViews",
      "target": 34962
    }
  ],
  "buffers": [
    {
      "byteLength": 2380116,
      "uri": "scene.bin"
    }
  ],
  "extensionsUsed": [
    "KHR_materials_unlit"
  ],
  "images": [
    {
      "uri": "textures/material_0_baseColor.jpeg"
    }
  ],
  "materials": [
    {
      "extensions": {
        "KHR_materials_unlit": {}
      },
      "name": "material_0",
      "pbrMetallicRoughness": {
        "baseColorTexture": {
          "index": 0
        },
        "metallicFactor": 0.0
      }
    }
  ],
  "meshes": [
    {
      "name": "Object_0",
      "primitives": [
        {
          "attributes": {
            "NORMAL": 1,
            "POSITION": 0,
            "TEXCOORD_0": 2,
            "TEXCOORD_1": 3,
            "TEXCOORD_2": 4
          },
          "indices": 5,
          "material": 0,
          "mode": 4
        }
      ]
    }
  ],
  "nodes": [
    {
      "children": [
        1
      ],
      "matrix": [
        -0.0007921448044617974,
        0.26750454017480846,
        0.8287364770886257,
        0.0,
        0.3550895221401724,
        -0.7566131948894537,
        0.24456357962833036,
        0.0,
        0.7951567803958781,
        0.3381437996292149,
        -0.1083880450352072,
        0.0,
        0.10690250992774963,
        -0.15082113444805148,
        0.16312861442565915,
        1.0
      ],
      "name": "Sketchfab_model"
    },
    {
      "children": [
        2
      ],
      "name": "root"
    },
    {
      "children": [
        3
      ],
      "matrix": [
        1.0,
        0.0,
        0.0,
        0.0,
        0.0,
        2.220446049250313e-16,
        1.0,
        0.0,
        0.0,
        -1.0,
        2.220446049250313e-16,
        0.0,
        0.0,
        0.0,
        0.0,
        1.0
      ],
      "name": "GLTF_SceneRootNode"
    },
    {
      "children": [
        4
      ],
      "name": "_0"
    },
    {
      "mesh": 0,
      "name": "Object_4"
    }
  ],
  "samplers": [
    {
      "magFilter": 9729,
      "minFilter": 9987,
      "wrapS": 10497,
      "wrapT": 10497
    }
  ],
  "scene": 0,
  "scenes": [
    {
      "name": "Sketchfab_Scene",
      "nodes": [
        0
      ]
    }
  ],
  "textures": [
    {
      "sampler": 0,
      "source": 0
    }
  ]
}
